<?xml version="1.0" encoding="UTF-8"?><svg id="_レイヤー_2" xmlns="http://www.w3.org/2000/svg" viewBox="0 0 91.3 73.65"><defs><style>.cls-1{fill:none;stroke:#2ea7e0;stroke-miterlimit:10;stroke-width:3px;}</style></defs><g id="_レイヤー_4"><path class="cls-1" d="m75.1,6.31l9.28-3.26s6.09-.43,1.32,6.95c0,0,6.05-.54,3.45,4.35l-7.57,7.26s-1.18,26.34-19.52,40.09c0,0-25.27,21.59-59.97,2.74,0,0-2.74-4.79,3.59-4.41,0,0,3.04,2.4,16.06-3.54,0,0-9.17-3.4-11.8-12.35,0,0,.09-2.11,1.23-2.19,0,0-7.64-7.2-7.02-14.75,0,0,.26-2.28,2.63-2.46,0,0-6.14-8.87.53-19.57,0,0,2.11-2.28,4.48,1.14,0,0,12.02,13.78,30.19,15.27,0,0-.59-16.37,15.47-19.7,0,0,9.12-2.27,17.66,4.44Z"/></g></svg>